<svg width="20" height="20" viewBox="0 0 20 20" fill="none" xmlns="http://www.w3.org/2000/svg">
<path d="M3.30859 5.63672L7.51172 1.43359C7.62891 1.31641 7.78711 1.25 7.95312 1.25H16.25C16.5957 1.25 16.875 1.5293 16.875 1.875V18.125C16.875 18.4707 16.5957 18.75 16.25 18.75H3.75C3.4043 18.75 3.125 18.4707 3.125 18.125V6.08008C3.125 5.91406 3.19141 5.75391 3.30859 5.63672ZM4.56641 6.36719H8.24219V2.69141L4.56641 6.36719ZM4.53125 17.3438H15.4688V2.65625H9.57031V6.875C9.57031 7.09256 9.48389 7.30121 9.33005 7.45505C9.17621 7.60889 8.96756 7.69531 8.75 7.69531H4.53125V17.3438ZM9.375 9.21875C9.375 9.13281 9.44531 9.0625 9.53125 9.0625H10.4688C10.5547 9.0625 10.625 9.13281 10.625 9.21875V11.3281H12.7344C12.8203 11.3281 12.8906 11.3984 12.8906 11.4844V12.4219C12.8906 12.5078 12.8203 12.5781 12.7344 12.5781H10.625V14.6875C10.625 14.7734 10.5547 14.8438 10.4688 14.8438H9.53125C9.44531 14.8438 9.375 14.7734 9.375 14.6875V12.5781H7.26562C7.17969 12.5781 7.10938 12.5078 7.10938 12.4219V11.4844C7.10938 11.3984 7.17969 11.3281 7.26562 11.3281H9.375V9.21875Z" fill="#4C6FFF"/>
</svg>
