<svg width="20" height="20" viewBox="0 0 20 20" fill="none" xmlns="http://www.w3.org/2000/svg">
<path d="M3.33317 6.66675L8.33317 1.66675H14.9998C15.4419 1.66675 15.8658 1.84234 16.1783 2.1549C16.4909 2.46746 16.6665 2.89139 16.6665 3.33341V16.6667C16.6665 17.1088 16.4909 17.5327 16.1783 17.8453C15.8658 18.1578 15.4419 18.3334 14.9998 18.3334H4.99984C4.55781 18.3334 4.13389 18.1578 3.82133 17.8453C3.50877 17.5327 3.33317 17.1088 3.33317 16.6667V6.66675ZM12.4998 15.8334H14.1665V8.33341H12.4998V15.8334ZM9.1665 15.8334H10.8332V10.8334H9.1665V15.8334ZM5.83317 15.8334H7.49984V13.3334H5.83317V15.8334ZM8.33317 7.50008H9.1665V3.33341L4.99984 7.50008H8.33317Z" fill="#4C6FFF"/>
</svg>
